<svg width="52" height="52" viewBox="0 0 52 52" fill="none" xmlns="http://www.w3.org/2000/svg">
<circle cx="26" cy="26" r="25" stroke="url(#paint0_linear_1_4)"/>
<path fill-rule="evenodd" clip-rule="evenodd" d="M21.4453 15.0409C21.1579 15.1724 21.0695 15.3673 21.0695 15.8697V16.2383L19.6751 16.239C18.0802 16.2398 17.9291 16.2584 17.3931 16.5197C16.7371 16.8395 16.2183 17.5017 16.0655 18.2141C15.9782 18.6216 15.9782 32.6108 16.0655 33.0183C16.2651 33.9488 17.0642 34.7381 18.0063 34.9353C18.4188 35.0216 32.5812 35.0216 32.9937 34.9353C33.9358 34.7381 34.7349 33.9488 34.9345 33.0183C35.0218 32.6108 35.0218 18.6216 34.9345 18.2141C34.7817 17.5017 34.2629 16.8395 33.6069 16.5197C33.0711 16.2585 32.9195 16.2398 31.3284 16.239L29.9375 16.2383L29.9241 15.8112C29.9097 15.3497 29.8753 15.2628 29.6384 15.0881C29.4852 14.9751 29.11 14.9751 28.9568 15.0881C28.7199 15.2628 28.6855 15.3497 28.6711 15.8112L28.6576 16.2383H25.5H22.3423L22.3289 15.8112C22.3146 15.3521 22.2796 15.2624 22.0491 15.0924C21.918 14.9957 21.6029 14.9688 21.4453 15.0409ZM21.0759 17.9158C21.0903 18.3773 21.1247 18.4643 21.3616 18.639C21.5148 18.7519 21.89 18.7519 22.0432 18.639C22.2801 18.4643 22.3145 18.3773 22.3289 17.9158L22.3423 17.4887H25.5H28.6576L28.6711 17.9158C28.6823 18.2732 28.6977 18.3605 28.766 18.4506C28.8949 18.621 29.0374 18.7071 29.225 18.728C29.4547 18.7535 29.6532 18.6683 29.7967 18.4827C29.9035 18.3445 29.9116 18.3084 29.9242 17.9101L29.9376 17.4851L31.3483 17.4966L32.7589 17.5082L32.9799 17.6106C33.2608 17.7407 33.4729 17.9503 33.6047 18.2278C33.7037 18.4363 33.7089 18.4802 33.7212 19.2178L33.734 19.9895H25.503H17.2719V19.2932C17.2719 18.5196 17.3076 18.3292 17.5087 18.0293C17.6506 17.8178 17.8707 17.6582 18.1541 17.5615C18.3361 17.4993 18.5155 17.4911 19.7111 17.49L21.0625 17.4887L21.0759 17.9158ZM33.7187 27.0131L33.7083 32.7863L33.6047 33.0046C33.4729 33.2821 33.2608 33.4916 32.9799 33.6217L32.7589 33.7241H25.5H18.2411L18.0201 33.6217C17.7392 33.4916 17.5271 33.2821 17.3953 33.0046L17.2917 32.7863L17.2813 27.0131L17.2709 21.2399H25.5H33.7291L33.7187 27.0131ZM19.4199 23.812C19.1347 23.9112 18.9158 24.0706 18.7739 24.2822C18.559 24.6027 18.5307 24.7783 18.5448 25.7041C18.5571 26.5052 18.5612 26.5421 18.6612 26.7527C18.7929 27.0302 19.0051 27.2397 19.286 27.3698C19.5047 27.4712 19.5162 27.4722 20.4366 27.4722C21.3569 27.4722 21.3684 27.4712 21.5871 27.3698C21.868 27.2397 22.0802 27.0302 22.2119 26.7527C22.3145 26.5366 22.3156 26.5252 22.3156 25.6162C22.3156 24.7071 22.3145 24.6957 22.2119 24.4797C22.0802 24.2022 21.868 23.9926 21.5871 23.8625C21.3723 23.763 21.342 23.7599 20.4959 23.7503C19.7368 23.7417 19.5993 23.7496 19.4199 23.812ZM24.4834 23.812C24.1981 23.9112 23.9793 24.0706 23.8373 24.2822C23.6224 24.6027 23.5941 24.7783 23.6083 25.7041C23.6206 26.5052 23.6246 26.5421 23.7246 26.7527C23.8564 27.0302 24.0685 27.2397 24.3494 27.3698C24.5682 27.4712 24.5797 27.4722 25.5 27.4722C26.4203 27.4722 26.4318 27.4712 26.6506 27.3698C26.9315 27.2397 27.1436 27.0302 27.2754 26.7527C27.378 26.5366 27.379 26.5252 27.379 25.6162C27.379 24.7071 27.378 24.6957 27.2754 24.4797C27.1436 24.2022 26.9315 23.9926 26.6506 23.8625C26.4357 23.763 26.4054 23.7599 25.5593 23.7503C24.8003 23.7417 24.6628 23.7496 24.4834 23.812ZM29.5468 23.812C29.2616 23.9112 29.0427 24.0706 28.9008 24.2822C28.6859 24.6027 28.6576 24.7783 28.6717 25.7041C28.684 26.5052 28.6881 26.5421 28.7881 26.7527C28.9198 27.0302 29.132 27.2397 29.4129 27.3698C29.6316 27.4712 29.6431 27.4722 30.5634 27.4722C31.4838 27.4722 31.4953 27.4712 31.714 27.3698C31.9949 27.2397 32.2071 27.0302 32.3388 26.7527C32.4414 26.5366 32.4425 26.5252 32.4425 25.6162C32.4425 24.7071 32.4414 24.6957 32.3388 24.4797C32.2071 24.2022 31.9949 23.9926 31.714 23.8625C31.4992 23.763 31.4689 23.7599 30.6228 23.7503C29.8637 23.7417 29.7262 23.7496 29.5468 23.812ZM21.0695 25.6162V26.2414H20.4366H19.8036V25.6162V24.991H20.4366H21.0695V25.6162ZM26.1329 25.6162V26.2414H25.5H24.8671V25.6162V24.991H25.5H26.1329V25.6162ZM31.1964 25.6162V26.2414H30.5634H29.9305V25.6162V24.991H30.5634H31.1964V25.6162ZM19.4199 28.8135C19.1347 28.9128 18.9158 29.0721 18.7739 29.2837C18.559 29.6042 18.5307 29.7799 18.5448 30.7057C18.5571 31.5068 18.5612 31.5436 18.6612 31.7542C18.7929 32.0317 19.0051 32.2412 19.286 32.3714C19.5047 32.4727 19.5162 32.4737 20.4366 32.4737C21.3569 32.4737 21.3684 32.4727 21.5871 32.3714C21.868 32.2412 22.0802 32.0317 22.2119 31.7542C22.3145 31.5381 22.3156 31.5268 22.3156 30.6177C22.3156 29.7086 22.3145 29.6973 22.2119 29.4812C22.0802 29.2037 21.868 28.9942 21.5871 28.864C21.3723 28.7645 21.342 28.7614 20.4959 28.7518C19.7368 28.7432 19.5993 28.7511 19.4199 28.8135ZM24.4834 28.8135C24.1981 28.9128 23.9793 29.0721 23.8373 29.2837C23.6224 29.6042 23.5941 29.7799 23.6083 30.7057C23.6206 31.5068 23.6246 31.5436 23.7246 31.7542C23.8564 32.0317 24.0685 32.2412 24.3494 32.3714C24.5682 32.4727 24.5797 32.4737 25.5 32.4737C26.4203 32.4737 26.4318 32.4727 26.6506 32.3714C26.9315 32.2412 27.1436 32.0317 27.2754 31.7542C27.378 31.5381 27.379 31.5268 27.379 30.6177C27.379 29.7086 27.378 29.6973 27.2754 29.4812C27.1436 29.2037 26.9315 28.9942 26.6506 28.864C26.4357 28.7645 26.4054 28.7614 25.5593 28.7518C24.8003 28.7432 24.6628 28.7511 24.4834 28.8135ZM29.5468 28.8135C29.2616 28.9128 29.0427 29.0721 28.9008 29.2837C28.6859 29.6042 28.6576 29.7799 28.6717 30.7057C28.684 31.5068 28.6881 31.5436 28.7881 31.7542C28.9198 32.0317 29.132 32.2412 29.4129 32.3714C29.6316 32.4727 29.6431 32.4737 30.5634 32.4737C31.4838 32.4737 31.4953 32.4727 31.714 32.3714C31.9949 32.2412 32.2071 32.0317 32.3388 31.7542C32.4414 31.5381 32.4425 31.5268 32.4425 30.6177C32.4425 29.7086 32.4414 29.6973 32.3388 29.4812C32.2071 29.2037 31.9949 28.9942 31.714 28.864C31.4992 28.7645 31.4689 28.7614 30.6228 28.7518C29.8637 28.7432 29.7262 28.7511 29.5468 28.8135ZM21.0695 30.6177V31.2429H20.4366H19.8036V30.6177V29.9925H20.4366H21.0695V30.6177ZM26.1329 30.6177V31.2429H25.5H24.8671V30.6177V29.9925H25.5H26.1329V30.6177ZM31.1964 30.6177V31.2429H30.5634H29.9305V30.6177V29.9925H30.5634H31.1964V30.6177Z" fill="#6141B8"/>
<defs>
<linearGradient id="paint0_linear_1_4" x1="26" y1="1" x2="26" y2="51" gradientUnits="userSpaceOnUse">
<stop stop-color="#B19CD7"/>
<stop offset="1" stop-color="#E3A8D4"/>
</linearGradient>
</defs>
</svg>
