<svg width="52" height="52" viewBox="0 0 52 52" fill="none" xmlns="http://www.w3.org/2000/svg">
<circle cx="26" cy="26" r="25" stroke="url(#paint0_linear_1_6)"/>
<path fill-rule="evenodd" clip-rule="evenodd" d="M26.9092 14.0752C26.4865 14.2871 26.4487 14.8848 26.8418 15.1418C26.9023 15.1813 27.1989 15.2685 27.501 15.3354C28.4251 15.5403 28.8812 15.691 29.709 16.0652C30.8947 16.601 31.9433 17.3459 32.922 18.3478C34.3349 19.794 35.2615 21.5325 35.6936 23.5483C35.8102 24.0925 35.8391 24.1601 36.0079 24.2854C36.2777 24.4857 36.6136 24.4667 36.8325 24.2387C37.0296 24.0335 37.0428 23.8997 36.924 23.3173C36.0598 19.0843 32.8502 15.5848 28.6959 14.346C28.2226 14.205 27.3106 13.9999 27.1568 14C27.1031 14 26.9917 14.0339 26.9092 14.0752ZM18.5869 15.3716C18.0348 15.5478 17.5763 15.9309 16.2842 17.2958C15.3586 18.2736 15.1048 18.7661 15.0188 19.7523C14.8966 21.1541 15.3703 22.9289 16.4149 24.9832C16.8569 25.8525 17.0549 26.1895 17.6145 27.0251C19.7267 30.179 22.4952 32.6938 25.7665 34.4301C27.6204 35.4141 29.1868 35.9194 30.6139 35.9938C31.6227 36.0464 32.5187 35.7649 33.1919 35.184C33.2708 35.1158 33.7659 34.6195 34.292 34.0809C35.1631 33.1893 35.2648 33.0694 35.4306 32.7394C35.7562 32.0913 35.7571 31.5134 35.4336 30.8509C35.2596 30.4947 35.2152 30.4457 33.6562 28.8894C32.143 27.3789 32.0398 27.285 31.7317 27.1387C31.0719 26.8254 30.3935 26.8557 29.7535 27.2272C29.6461 27.2895 29.1572 27.7359 28.6671 28.2192L27.776 29.098L27.3469 28.8712C25.4529 27.8706 22.9628 25.3695 22.0374 23.5381L21.8719 23.2106L22.7002 22.3774C23.5832 21.4891 23.7955 21.2214 23.9381 20.8162C24.1305 20.2693 24.0917 19.7431 23.8182 19.1901C23.6771 18.9049 23.5314 18.7464 22.0655 17.2844C20.3971 15.6202 20.2627 15.5082 19.7556 15.3579C19.447 15.2665 18.896 15.2729 18.5869 15.3716ZM19.5526 16.6223C19.8225 16.7488 22.6066 19.5399 22.7257 19.8032C22.9496 20.2984 22.8554 20.4617 21.6719 21.6302C21.145 22.1503 20.6803 22.6423 20.6391 22.7234C20.5181 22.9617 20.5694 23.3972 20.7682 23.8192C21.3222 24.9951 22.2197 26.1805 23.5875 27.5428C24.71 28.6608 25.8642 29.5266 27.0313 30.1261C27.5193 30.3769 27.5855 30.3994 27.8284 30.3974C27.9983 30.396 28.1473 30.3669 28.244 30.3163C28.327 30.2728 28.8311 29.8072 29.3643 29.2816C29.8975 28.7559 30.3999 28.2922 30.4807 28.2511C30.6961 28.1416 31.0732 28.1771 31.2905 28.3274C31.5953 28.5381 34.2152 31.2024 34.3189 31.407C34.4452 31.6564 34.445 31.9377 34.3183 32.1863C34.2253 32.3689 32.8369 33.8214 32.3592 34.2361C31.6685 34.8355 30.698 34.9078 29.1058 34.4787C27.9427 34.1652 26.1472 33.2968 24.6678 32.3323C21.5212 30.2809 18.6435 26.9571 17.1885 23.6936C16.2532 21.5955 16.0226 19.9868 16.5138 18.9864C16.6024 18.8062 16.8655 18.5118 17.622 17.7466C18.2497 17.1117 18.6852 16.706 18.8079 16.6417C19.049 16.5154 19.3103 16.5087 19.5526 16.6223ZM26.7033 18.0835C26.4086 18.2627 26.3044 18.6503 26.4756 18.9304C26.5966 19.1283 26.7019 19.1816 27.2228 19.3085C28.4178 19.5994 29.3763 20.1459 30.1927 21.0018C30.9612 21.8075 31.4834 22.7762 31.7131 23.8225C31.8021 24.2279 31.8647 24.3639 32.0177 24.4839C32.3667 24.7578 32.9267 24.5559 33.0074 24.1272C33.0686 23.8012 32.7449 22.6806 32.374 21.9345C31.4127 20.0012 29.6696 18.6089 27.5762 18.1021C27.0535 17.9756 26.8864 17.9721 26.7033 18.0835Z" fill="#6141B8"/>
<defs>
<linearGradient id="paint0_linear_1_6" x1="26" y1="1" x2="26" y2="51" gradientUnits="userSpaceOnUse">
<stop stop-color="#B19CD7"/>
<stop offset="1" stop-color="#E3A8D4"/>
</linearGradient>
</defs>
</svg>
