<svg width="52" height="52" viewBox="0 0 52 52" fill="none" xmlns="http://www.w3.org/2000/svg">
<circle cx="26" cy="26" r="25" stroke="url(#paint0_linear_1_5)"/>
<path d="M21.0547 32.1181C18.0318 29.7828 16.5111 26.9615 16.5001 23.8399L16.5001 23.8398C16.4855 19.474 18.9567 16.0862 23.0227 14.8596C28.6248 13.1696 34.519 17.6744 34.5 23.6978C34.4894 26.9762 33.0179 29.744 29.9454 32.1181C29.2646 32.644 28.5443 33.3292 27.9284 34.01C27.3179 34.6848 26.7826 35.3856 26.4952 35.9455C26.2494 36.4244 25.9754 36.8527 25.7378 37.154C25.6463 37.2701 25.5659 37.3599 25.5 37.4244C25.4341 37.3599 25.3537 37.2701 25.2622 37.154C25.0247 36.8527 24.7507 36.4244 24.5048 35.9455C24.2175 35.3856 23.6821 34.6848 23.0716 34.01C22.4557 33.3292 21.7354 32.644 21.0547 32.1181ZM21.0547 32.1181L20.749 32.5138M21.0547 32.1181L20.749 32.5138M20.749 32.5138C22.0548 33.5225 23.5444 35.1694 24.06 36.1738C24.5756 37.1782 25.2232 38 25.5 38C25.7768 38 26.4244 37.1782 26.94 36.1738C27.4556 35.1694 28.9452 33.5225 30.251 32.5138L35 23.6994C35.02 17.3569 28.8179 12.5891 22.8783 14.3809C18.5937 15.6734 15.9847 19.2617 16.0001 23.8416C16.0117 27.1477 17.6302 30.1043 20.749 32.5138ZM27.0983 26.348L27.0983 26.348C28.7136 25.2692 29.1968 22.9596 27.8643 21.6011C27.5798 21.3111 27.1906 21.1214 26.7925 21.0033C26.3888 20.8835 25.9404 20.8264 25.5 20.8264C25.0596 20.8264 24.6112 20.8835 24.2075 21.0033C23.8095 21.1214 23.4202 21.3111 23.1357 21.6011C21.8032 22.9596 22.2864 25.2692 23.9017 26.348L23.9017 26.348C24.2066 26.5516 24.4736 26.7225 24.717 26.8411C24.9664 26.9628 25.2207 27.0449 25.5 27.0449C25.7793 27.0449 26.0336 26.9628 26.283 26.8411C26.5264 26.7225 26.7934 26.5516 27.0983 26.348Z" stroke="#6141B8"/>
<defs>
<linearGradient id="paint0_linear_1_5" x1="26" y1="1" x2="26" y2="51" gradientUnits="userSpaceOnUse">
<stop stop-color="#B19CD7"/>
<stop offset="1" stop-color="#E3A8D4"/>
</linearGradient>
</defs>
</svg>
